<svg width="20" height="20" viewBox="0 0 20 20" fill="none" xmlns="http://www.w3.org/2000/svg">
<path fill-rule="evenodd" clip-rule="evenodd" d="M0.925855 9.27218C2.40469 13.8733 8.24727 17.5936 9.79994 18.5144C11.3579 17.5841 17.2427 13.8226 18.674 9.2764C19.6139 6.33771 18.7415 2.6153 15.2754 1.49826C13.5962 0.95925 11.6374 1.28729 10.2852 2.33366C10.0025 2.55095 9.61008 2.55517 9.32528 2.33999C7.89285 1.26303 6.02163 0.947647 4.316 1.49826C0.855183 2.61424 -0.013978 6.33666 0.925855 9.27218M16.0376 7.6943C15.6294 7.6943 15.2834 7.38102 15.2496 6.96754C15.18 6.10048 14.5999 5.36845 13.774 5.10158C13.3573 4.96657 13.1295 4.52038 13.2634 4.10584C13.3995 3.69025 13.8415 3.46452 14.2592 3.59532C15.6969 4.06049 16.7042 5.33364 16.8276 6.83885C16.8624 7.27448 16.5386 7.65632 16.103 7.69113C16.0808 7.69324 16.0597 7.6943 16.0376 7.6943" fill="#196EEE"/>
<path d="M9.79994 18.5144L9.54489 18.9445L9.80082 19.0962L10.0563 18.9437L9.79994 18.5144ZM18.674 9.2764L18.1978 9.12409L18.1971 9.12624L18.674 9.2764ZM15.2754 1.49826L15.4288 1.02236L15.4283 1.02218L15.2754 1.49826ZM10.2852 2.33366L10.5899 2.73009L10.5911 2.7291L10.2852 2.33366ZM9.32528 2.33999L9.6267 1.94106L9.62575 1.94035L9.32528 2.33999ZM4.316 1.49826L4.46945 1.97413L4.46961 1.97408L4.316 1.49826ZM15.2496 6.96754L14.7512 7.00755L14.7513 7.00822L15.2496 6.96754ZM13.774 5.10158L13.6198 5.57723L13.6202 5.57736L13.774 5.10158ZM13.2634 4.10584L12.7883 3.95026L12.7877 3.95209L13.2634 4.10584ZM14.2592 3.59532L14.4131 3.11958L14.4086 3.11816L14.2592 3.59532ZM16.8276 6.83885L17.326 6.79902L17.326 6.79799L16.8276 6.83885ZM16.103 7.69113L16.0632 7.19266L16.0556 7.19338L16.103 7.69113ZM0.449838 9.42518C1.23095 11.8554 3.14342 14.0091 5.00473 15.6486C6.87663 17.2974 8.75445 18.4757 9.54489 18.9445L10.055 18.0843C9.29277 17.6323 7.47296 16.49 5.6657 14.8982C3.84784 13.297 2.0996 11.29 1.40187 9.11919L0.449838 9.42518ZM10.0563 18.9437C10.8488 18.4704 12.7381 17.2797 14.6149 15.6266C16.4802 13.9836 18.3935 11.8322 19.151 9.42656L18.1971 9.12624C17.5231 11.2668 15.7784 13.2692 13.954 14.8761C12.1411 16.4729 10.3091 17.628 9.5436 18.0851L10.0563 18.9437ZM19.1503 9.42871C19.6503 7.86533 19.6728 6.0843 19.0957 4.53014C18.5137 2.96287 17.3212 1.63224 15.4288 1.02236L15.1221 1.97415C16.6958 2.48132 17.6725 3.57041 18.1582 4.87828C18.6488 6.19926 18.6376 7.74878 18.1978 9.1241L19.1503 9.42871ZM15.4283 1.02218C13.598 0.434697 11.4665 0.787323 9.97917 1.93822L10.5911 2.7291C11.8083 1.78727 13.5944 1.4838 15.1226 1.97433L15.4283 1.02218ZM9.98044 1.93724C9.87377 2.01924 9.72948 2.01871 9.6267 1.94106L9.02387 2.73893C9.49068 3.09163 10.1312 3.08267 10.5899 2.73009L9.98044 1.93724ZM9.62575 1.94035C8.0636 0.765856 6.02305 0.421779 4.1624 1.02244L4.46961 1.97408C6.0202 1.47351 7.72211 1.76021 9.02481 2.73964L9.62575 1.94035ZM4.16255 1.02239C2.2725 1.63186 1.08227 2.96251 0.501829 4.52918C-0.0737533 6.08274 -0.0503433 7.86289 0.449665 9.42464L1.40205 9.11973C0.96222 7.74595 0.950294 6.19713 1.43954 4.8766C1.92393 3.56919 2.89869 2.48064 4.46945 1.97413L4.16255 1.02239ZM16.0376 7.1943C15.8875 7.1943 15.7604 7.07864 15.748 6.92685L14.7513 7.00822C14.8064 7.6834 15.3712 8.1943 16.0376 8.1943V7.1943ZM15.748 6.92752C15.6622 5.85869 14.9459 4.95479 13.9277 4.6258L13.6202 5.57736C14.2539 5.7821 14.6978 6.34227 14.7512 7.00755L15.748 6.92752ZM13.9281 4.62593C13.7733 4.57575 13.6904 4.41078 13.7392 4.25959L12.7877 3.95209C12.5686 4.62999 12.9414 5.35738 13.6198 5.57723L13.9281 4.62593ZM13.7386 4.26142C13.7889 4.1078 13.9512 4.02283 14.1098 4.07247L14.4086 3.11816C13.7317 2.90621 13.0101 3.2727 12.7883 3.95026L13.7386 4.26142ZM14.1053 4.07104C15.3508 4.47402 16.2224 5.57553 16.3293 6.87971L17.326 6.79799C17.1861 5.09175 16.043 3.64696 14.4131 3.1196L14.1053 4.07104ZM16.3292 6.87867C16.3421 7.04038 16.2222 7.18001 16.0632 7.19272L16.1428 8.18954C16.855 8.13263 17.3827 7.50859 17.326 6.79902L16.3292 6.87867ZM16.0556 7.19338C16.0483 7.19408 16.0431 7.1943 16.0376 7.1943V8.1943C16.0764 8.1943 16.1133 8.19241 16.1504 8.18888L16.0556 7.19338Z" fill="white"/>
</svg>
