<svg width="22" height="22" viewBox="0 0 22 22" fill="none" xmlns="http://www.w3.org/2000/svg">
<mask id="mask0_0_166" style="mask-type:luminance" maskUnits="userSpaceOnUse" x="0" y="0" width="22" height="22">
<path fill-rule="evenodd" clip-rule="evenodd" d="M0 0.651093H21.5946V21.2209H0V0.651093Z" fill="white"/>
</mask>
<g mask="url(#mask0_0_166)">
<path fill-rule="evenodd" clip-rule="evenodd" d="M1.92585 10.2722C3.40469 14.8732 9.24726 18.5936 10.7999 19.5144C12.3579 18.5841 18.2427 14.8226 19.674 10.2764C20.6139 7.33771 19.7415 3.61529 16.2754 2.49825C14.5962 1.95925 12.6374 2.28729 11.2852 3.33366C11.0025 3.55095 10.6101 3.55517 10.3253 3.33999C8.89285 2.26303 7.02162 1.94764 5.316 2.49825C1.85518 3.61424 0.986017 7.33665 1.92585 10.2722M10.7991 21.2199C10.6683 21.2199 10.5385 21.1883 10.4204 21.124C10.0902 20.9436 2.31315 16.6568 0.417658 10.7563C0.416603 10.7563 0.416603 10.7552 0.416603 10.7552C-0.773219 7.04017 0.551619 2.37159 4.82886 0.992961C6.83721 0.3432 9.02594 0.629053 10.7959 1.74609C12.511 0.661752 14.7894 0.362187 16.7577 0.992961C21.0391 2.3737 22.3682 7.04123 21.1794 10.7552C19.3451 16.5883 11.5111 20.9394 11.1788 21.1218C11.0607 21.1872 10.9299 21.2199 10.7991 21.2199" fill="#B8B8B8"/>
</g>
<path fill-rule="evenodd" clip-rule="evenodd" d="M17.0376 8.6943C16.6294 8.6943 16.2834 8.38102 16.2496 7.96754C16.18 7.10048 15.5999 6.36845 14.774 6.10158C14.3573 5.96657 14.1295 5.52038 14.2634 5.10584C14.3995 4.69025 14.8415 4.46452 15.2592 4.59532C16.6969 5.06049 17.7042 6.33364 17.8276 7.83885C17.8624 8.27448 17.5386 8.65632 17.103 8.69113C17.0808 8.69324 17.0597 8.6943 17.0376 8.6943" fill="#B8B8B8"/>
</svg>
