<svg width="25" height="20" viewBox="0 0 25 20" fill="none" xmlns="http://www.w3.org/2000/svg">
<path fill-rule="evenodd" clip-rule="evenodd" d="M20.0409 18.9979C22.0903 18.9979 23.7502 17.3586 23.7502 15.3347V12.4187C22.3941 12.4187 21.3019 11.3402 21.3019 10.0009C21.3019 8.6617 22.3941 7.58198 23.7502 7.58198L23.749 4.66487C23.749 2.64096 22.0879 1.00168 20.0397 1.00168H4.96544C2.91722 1.00168 1.25612 2.64096 1.25612 4.66487L1.25494 7.67697C2.61104 7.67697 3.70319 8.6617 3.70319 10.0009C3.70319 11.3402 2.61104 12.4187 1.25494 12.4187V15.3347C1.25494 17.3586 2.91487 18.9979 4.96427 18.9979H20.0409Z" fill="#196EEE" stroke="white" stroke-linecap="round" stroke-linejoin="round"/>
<path d="M14.5801 1.28296V4.00488" stroke="white" stroke-linecap="round" stroke-linejoin="round"/>
<path d="M14.5801 16.478V18.7545" stroke="white" stroke-linecap="round" stroke-linejoin="round"/>
<path d="M14.5801 12.6119V7.18939" stroke="white" stroke-linecap="round" stroke-linejoin="round"/>
</svg>
